<svg width="94" height="94" viewBox="0 0 94 94" fill="none" xmlns="http://www.w3.org/2000/svg">
<g filter="url(#filter0_f)">
<path d="M15.9159 42.752L24.7667 31.6666L26.3832 29.642L28.1206 27.7508L29.223 26.7672L31.7107 25.0692L34.4876 23.5878L36.5321 22.7757L44.4328 19.8713L49.9674 17.3656L56.5448 12.9024L62.32 8.83074L68.0398 4.82526L70.4786 3.60718H73.5414L77.1713 4.49306L79.3833 5.87724L81.3117 7.81513L81.9924 11.3586L81.652 15.8988L79.3267 20.1067L73.5981 26.6954C73.5981 26.6954 70.0248 30.4051 69.7979 30.5712C69.5711 30.7373 64.4666 35.7205 64.4666 35.7205L61.4604 38.6549C61.4604 38.6549 59.0782 41.4788 58.7946 41.7554C58.511 42.0323 56.4693 45.5759 56.2992 45.7973C56.1291 46.0188 53.6901 48.3995 53.6901 48.3995L50.4571 50.116C50.4571 50.116 45.3526 53.0504 45.1256 53.2167C44.8988 53.3828 40.2478 55.8743 40.2478 55.8743L38.1493 56.7048L34.9163 58.7534L23.9699 65.3973L17.5039 68.2212C17.5039 68.2212 13.1934 68.941 12.9665 68.941C12.7396 68.941 9.56342 69.1623 9.56342 69.1623C9.56342 69.1623 7.91859 68.8857 7.57828 68.8302C7.23797 68.7747 4.40209 67.0585 4.11849 66.8924C3.83491 66.7263 2.64383 65.7297 2.64383 65.7297C2.64383 65.7297 2.47371 65.2313 2.47371 65.0099C2.47371 64.7883 2.41707 63.2935 2.41707 63.2935C2.41707 63.2935 2.58719 60.6359 2.58719 60.4143C2.58719 60.193 3.04093 58.1442 3.2111 57.812C3.38122 57.4799 5.47983 53.7702 5.47983 53.7702L10.074 48.5103L15.9159 42.752Z" fill="#D9B6BD"/>
<path d="M59.3522 48.9993L63.844 46.807L66.7315 44.9277L68.9776 41.9523L70.6149 39.8896L71.6255 38.8083L72.4667 38.096C72.4667 38.096 72.8032 37.8052 73.3243 37.5374C73.8951 37.2438 74.5431 36.9072 74.7527 36.7844C75.1537 36.5495 76.8383 35.923 77.3998 35.7663C77.9611 35.6097 80.2071 34.8269 80.6082 34.7485C81.0092 34.6702 83.0145 34.5918 83.4959 34.6702C83.977 34.7485 85.5812 35.2966 85.5812 35.2966L87.1854 36.6277C87.1854 36.6277 88.0679 38.4288 88.148 38.7421C88.2281 39.0552 89.271 42.109 89.271 42.109C89.271 42.109 89.8325 45.5542 89.8325 46.1024C89.8325 46.6505 89.5919 48.2947 89.4315 48.9211C89.271 49.5477 88.3084 53.776 88.3084 53.776L86.8647 58.7088L85.2605 61.6844L82.2124 65.1297L79.0841 68.8786L77.744 69.7953L75.5548 70.6891C75.5548 70.6891 73.6297 71.3937 73.309 71.6285C72.988 71.8636 69.5391 73.7429 69.5391 73.7429L66.6514 75.622C66.6514 75.622 66.0793 76.0565 65.7891 76.3267C65.2074 76.8685 65.2114 76.8275 64.7434 77.2617L62.7039 79.1547C62.1624 79.507 59.2927 81.6412 59.2927 81.6412L54.5273 85.8115C54.5273 85.8115 50.9868 88.412 50.2648 88.882C49.5428 89.3517 48.193 90.2129 47.6315 90.3695C47.2805 90.4675 46.0317 90.8684 45.0665 91.1551C44.4879 91.327 43.614 91.2363 43.4937 91.2363C43.173 91.2363 42.2866 91.1446 41.7251 91.1446C41.1636 91.1446 39.6202 90.716 39.2993 90.6376C38.9784 90.5594 39.5829 90.97 38.3797 90.5965C37.7282 90.463 37.388 90.3751 36.666 90.1402C35.9443 89.9052 35.3689 89.4813 35.048 89.2465C34.7273 89.0116 34.0619 88.5322 33.8214 88.0623C33.7155 87.8557 33.3867 87.3927 33.2739 86.9073C33.1299 86.2887 33.2131 85.6792 33.2131 85.6792C33.1955 84.928 33.6043 83.2955 33.6043 83.2955L35.1283 78.5191C35.1283 78.5191 35.6898 76.8747 36.0108 76.405C36.3315 75.935 37.8555 72.3333 37.8555 72.3333L39.139 68.888L40.5828 65.3643L42.277 62.4768L44.0552 59.9806L46.08 57.5208C46.08 57.5208 47.0799 56.438 47.4006 56.2032C47.7215 55.9683 50.1278 54.0106 50.1278 54.0106C50.1278 54.0106 51.331 53.2276 51.8925 52.9927C52.454 52.7579 59.3522 48.9993 59.3522 48.9993Z" fill="#F2C493"/>
</g>
<defs>
<filter id="filter0_f" x="0" y="0" width="94" height="94" filterUnits="userSpaceOnUse" color-interpolation-filters="sRGB">
<feFlood flood-opacity="0" result="BackgroundImageFix"/>
<feBlend mode="normal" in="SourceGraphic" in2="BackgroundImageFix" result="shape"/>
<feGaussianBlur stdDeviation="1" result="effect1_foregroundBlur"/>
</filter>
</defs>
</svg>
