<svg width="90" height="90" viewBox="0 0 90 90" fill="none" xmlns="http://www.w3.org/2000/svg">
<rect width="90" height="90" fill="white"/>
<rect x="3.5" y="3.5" width="83" height="83" stroke="black" stroke-width="7"/>
<path d="M24.9475 66.296C24.9475 70.52 24.8195 71.416 24.2435 72.248C23.4755 73.272 22.2595 73.72 20.2755 73.72H19.6355V75H35.8275V73.72H34.1635C32.3075 73.72 31.3475 73.336 30.5155 72.504C29.6195 71.48 29.4915 70.968 29.4915 66.296V58.104C32.1795 59.064 33.9075 59.448 35.7635 59.448C43.5715 59.448 50.3555 52.344 50.3555 44.088C50.3555 37.368 45.5555 31.288 40.1795 31.288C37.4275 31.288 34.5475 32.632 29.4915 36.28V29.688H28.1475L20.7875 34.168V35.512C24.7555 36.472 24.8195 36.536 24.8835 38.136L24.9475 40.312V66.296ZM29.4915 53.496V38.008C32.0515 35.832 34.6115 34.616 36.7875 34.616C41.8435 34.616 45.8115 39.928 45.8115 46.712C45.8115 52.792 42.3555 57.272 37.6835 57.272C35.1235 57.272 31.9875 55.8 29.4915 53.496ZM58.3135 56.504C58.3135 58.424 59.7855 59.832 61.8335 59.832C63.9455 59.832 65.4175 58.488 65.4175 56.568C65.4175 54.712 63.9455 53.304 61.8335 53.304C59.8495 53.304 58.3135 54.712 58.3135 56.504Z" fill="black"/>
</svg>
