<svg width="90" height="90" viewBox="0 0 90 90" fill="none" xmlns="http://www.w3.org/2000/svg">
<g clip-path="url(#clip0)">
<rect width="90" height="90" fill="white"/>
<rect x="3.5" y="3.5" width="83" height="83" stroke="black" stroke-width="7"/>
<path d="M27.9083 32.392C29.0603 30.3867 30.7669 28.7227 33.0283 27.4C35.3323 26.0347 37.9989 25.352 41.0283 25.352C44.1429 25.352 46.9589 26.0987 49.4762 27.592C52.0362 29.0853 54.0416 31.1973 55.4923 33.928C56.9429 36.616 57.6683 39.752 57.6683 43.336C57.6683 46.8773 56.9429 50.0347 55.4923 52.808C54.0416 55.5813 52.0362 57.736 49.4762 59.272C46.9589 60.808 44.1429 61.576 41.0283 61.576C38.0416 61.576 35.3963 60.9147 33.0923 59.592C30.8309 58.2267 29.1029 56.5413 27.9083 54.536V77.64H22.0843V25.928H27.9083V32.392ZM51.7163 43.336C51.7163 40.6907 51.1829 38.3867 50.1163 36.424C49.0496 34.4613 47.5989 32.968 45.7643 31.944C43.9723 30.92 41.9883 30.408 39.8123 30.408C37.6789 30.408 35.6949 30.9413 33.8603 32.008C32.0683 33.032 30.6176 34.5467 29.5083 36.552C28.4416 38.5147 27.9083 40.7973 27.9083 43.4C27.9083 46.0453 28.4416 48.3707 29.5083 50.376C30.6176 52.3387 32.0683 53.8533 33.8603 54.92C35.6949 55.944 37.6789 56.456 39.8123 56.456C41.9883 56.456 43.9723 55.944 45.7643 54.92C47.5989 53.8533 49.0496 52.3387 50.1163 50.376C51.1829 48.3707 51.7163 46.024 51.7163 43.336ZM67.1903 61.384C66.0809 61.384 65.1423 61 64.3743 60.232C63.6063 59.464 63.2223 58.5253 63.2223 57.416C63.2223 56.3067 63.6063 55.368 64.3743 54.6C65.1423 53.832 66.0809 53.448 67.1903 53.448C68.2569 53.448 69.1529 53.832 69.8783 54.6C70.6463 55.368 71.0303 56.3067 71.0303 57.416C71.0303 58.5253 70.6463 59.464 69.8783 60.232C69.1529 61 68.2569 61.384 67.1903 61.384Z" fill="black"/>
</g>
<defs>
<clipPath id="clip0">
<rect width="90" height="90" fill="white"/>
</clipPath>
</defs>
</svg>
